<svg xmlns="http://www.w3.org/2000/svg" version="1.1" xmlns:xlink="http://www.w3.org/1999/xlink"
    xmlns:svgjs="http://svgjs.dev/svgjs" viewBox="0 0 430 110" width="430" height="110">
    <rect width="430" height="110" rx="3" ry="3" fill="#2f3136"></rect>
    <svg width="398" height="78" x="16" y="16">
        <svg width="398" height="16">
            <text x="0" y="15" font-size="12px" fill="#b9bbbe">#invited</text>
        </svg>
        <svg width="398" height="50" x="0" y="28">
            <image width="50" height="50"
                href="#logoImage"
                clip-path="url(#SvgjsClipPath244945)"></image>
            <a href="#tgLink" target="_blank">
                <svg width="94.75" height="40" x="303.25" y="5">
                    <rect width="94.75" height="40" rx="3" ry="3" fill="#3ba55c"></rect>
                    <path
                        d="M40.135 15.099999999999998L40.135 22.38Q40.135 23.63 39.415 24.24Q38.684999999999995 24.86 37.404999999999994 24.86L37.404999999999994 24.86Q37.01499999999999 24.86 36.544999999999995 24.77L36.544999999999995 24.77L36.345 23.58Q36.824999999999996 23.709999999999997 37.425 23.709999999999997L37.425 23.709999999999997Q38.114999999999995 23.709999999999997 38.464999999999996 23.36Q38.824999999999996 23.02 38.824999999999996 22.259999999999998L38.824999999999996 22.259999999999998L38.824999999999996 15.099999999999998L40.135 15.099999999999998ZM47.985 21.43L47.985 21.43Q47.985 23.04 47.114999999999995 23.97Q46.254999999999995 24.9 44.885 24.9L44.885 24.9Q43.515 24.9 42.665 23.97Q41.815 23.049999999999997 41.815 21.43Q41.815 19.81 42.665 18.88Q43.525 17.939999999999998 44.885 17.939999999999998L44.885 17.939999999999998Q46.254999999999995 17.939999999999998 47.114999999999995 18.88Q47.985 19.81 47.985 21.43ZM46.724999999999994 21.43L46.724999999999994 21.43Q46.724999999999994 20.36 46.245 19.669999999999998Q45.754999999999995 18.979999999999997 44.885 18.979999999999997Q44.004999999999995 18.979999999999997 43.535 19.659999999999997Q43.065 20.339999999999996 43.065 21.43L43.065 21.43Q43.065 22.5 43.544999999999995 23.18Q44.025 23.86 44.885 23.86L44.885 23.86Q45.775 23.86 46.254999999999995 23.189999999999998Q46.724999999999994 22.519999999999996 46.724999999999994 21.43ZM50.845 15.389999999999999Q51.084999999999994 15.629999999999997 51.084999999999994 15.959999999999997Q51.084999999999994 16.279999999999998 50.845 16.509999999999998Q50.614999999999995 16.729999999999997 50.294999999999995 16.729999999999997L50.294999999999995 16.729999999999997Q49.964999999999996 16.729999999999997 49.735 16.509999999999998Q49.495 16.279999999999998 49.495 15.959999999999997Q49.495 15.629999999999997 49.735 15.389999999999999Q49.974999999999994 15.159999999999998 50.294999999999995 15.159999999999998Q50.614999999999995 15.159999999999998 50.845 15.389999999999999ZM50.915 18.08L50.915 24.759999999999998L49.665 24.759999999999998L49.665 18.08L50.915 18.08ZM58.405 19.9L58.405 24.759999999999998L57.16499999999999 24.759999999999998L57.16499999999999 20.209999999999997Q57.16499999999999 19.669999999999998 56.91499999999999 19.36Q56.66499999999999 19.06 56.135 19.06L56.135 19.06Q55.224999999999994 19.06 54.214999999999996 20.139999999999997L54.214999999999996 20.139999999999997L54.214999999999996 24.759999999999998L52.964999999999996 24.759999999999998L52.964999999999996 18.08L53.955 18.08L54.105 19.049999999999997Q55.315 17.939999999999998 56.474999999999994 17.939999999999998L56.474999999999994 17.939999999999998Q57.405 17.939999999999998 57.905 18.459999999999997Q58.405 18.979999999999997 58.405 19.9L58.405 19.9Z "
                        fill="#ffffff"></path>
                </svg>
            </a>
            <svg width="227.25" height="38" x="66" y="6">
                <svg y="2"></svg>
                <text x="0" y="15" fill="#ffffff">#title</text>
                <svg height="16" width="227.25" y="22">
                    <circle r="4" cx="4" cy="8" fill="#3ba55c"></circle>
                    <text x="12" y="13" fill="#b9bbbe">#membersOnline</text>
                    <circle r="4" cx="99.24" cy="8" fill="#747f8d"></circle>
                    <text x="108" y="13" fill="#b9bbbe">#members</text>
                </svg>
            </svg>
        </svg>
    </svg>
    <defs>
        <clipPath id="SvgjsClipPath244945">
            <rect width="50" height="50" rx="16" ry="16" fill="#36393f"></rect>
        </clipPath>
    </defs>
</svg>